<svg xmlns="http://www.w3.org/2000/svg" xmlns:xlink="http://www.w3.org/1999/xlink" version="1.1" id="Capa_1" x="0px" y="0px" viewBox="0 0 512 512" style="enable-background:new 0 0 512 512;" xml:space="preserve" fill="#16afe0">
<g>
	<g>
		<path d="M236,126c-5.52,0-10,4.48-10,10s4.48,10,10,10s10-4.48,10-10S241.52,126,236,126z"/>
	</g>
</g>
<g>
	<g>
		<path d="M406,246c16.542,0,30-13.458,30-30v-20c0-16.542-13.458-30-30-30h-10v-10c0-37.047-28.934-67.446-65.388-69.831    c-8.599-49.136-10.985-62.9-11.122-63.45C316.138,9.342,304.167,0,290.38,0H181.62c-13.787,0-25.758,9.342-29.11,22.719    c-0.138,0.55-2.523,14.314-11.122,63.45C104.934,88.554,76,118.953,76,156v200c0,37.047,28.934,67.446,65.388,69.831    l10.972,62.741c0.042,0.238,0.092,0.474,0.15,0.708c3.352,13.378,15.323,22.72,29.11,22.72h108.76    c13.787,0,25.758-9.342,29.11-22.719c0.059-0.234,0.108-0.471,0.15-0.708l10.972-62.741C367.066,423.446,396,393.047,396,356v-10    h10c16.542,0,30-13.458,30-30v-20c0-16.542-13.458-30-30-30h-10v-20H406z M396,186h10c5.514,0,10,4.486,10,10v20    c0,5.514-4.486,10-10,10h-10V186z M171.987,27.29c1.217-4.308,5.135-7.29,9.633-7.29h108.76c4.498,0,8.416,2.982,9.633,7.29    L310.279,86H161.721L171.987,27.29z M300.013,484.71c-1.217,4.308-5.135,7.29-9.633,7.29H181.62c-4.498,0-8.416-2.982-9.633-7.29    L161.721,426h148.558L300.013,484.71z M376,356c0,27.57-22.43,50-50,50H146c-27.57,0-50-22.43-50-50V156c0-27.57,22.43-50,50-50    c9.682,0,169.804,0,180,0c27.57,0,50,22.43,50,50C376,186.186,376,323.933,376,356z M406,286c5.514,0,10,4.486,10,10v20    c0,5.514-4.486,10-10,10h-10v-40H406z"/>
	</g>
</g>
<g>
	<g>
		<path d="M326,126h-50c-5.522,0-10,4.477-10,10s4.478,10,10,10h50c5.514,0,10,4.486,10,10v90h-50c-4.305,0-8.126,2.754-9.487,6.838    L266,284.377l-10.513-31.54C254.126,248.754,250.305,246,246,246h-12.192l-18.106-72.425C214.589,169.123,210.589,166,206,166    s-8.589,3.123-9.701,7.575L178.192,246H136v-90c0-5.514,4.486-10,10-10h30c5.522,0,10-4.477,10-10s-4.478-10-10-10h-30    c-16.542,0-30,13.458-30,30v200c0,16.542,13.458,30,30,30h180c16.542,0,30-13.458,30-30V156C356,139.458,342.542,126,326,126z     M336,356c0,5.514-4.486,10-10,10H146c-5.514,0-10-4.486-10-10v-90h50c4.589,0,8.589-3.123,9.701-7.575L206,217.231l10.299,41.194    c1.112,4.452,5.112,7.575,9.701,7.575h12.792l17.721,53.162c1.361,4.083,5.183,6.838,9.487,6.838c4.304,0,8.126-2.754,9.487-6.838    L293.208,266H336V356z"/>
	</g>
</g>
</svg>