<svg xmlns="http://www.w3.org/2000/svg" xmlns:xlink="http://www.w3.org/1999/xlink" version="1.1" id="Capa_1" x="0px" y="0px" viewBox="0 0 512.001 512.001" style="enable-background:new 0 0 512.001 512.001;" xml:space="preserve" fill="#16afe0">
<g>
	<g>
		<path d="M395.349,116.653c-3.91-3.91-10.24-3.91-14.14,0c-3.91,3.91-3.91,10.24,0,14.14c3.9,3.909,10.23,3.909,14.14,0    C399.259,126.893,399.259,120.563,395.349,116.653z"/>
	</g>
</g>
<g>
	<g>
		<path d="M130.793,381.208c-3.9-3.909-10.24-3.909-14.14,0c-3.91,3.9-3.91,10.24,0,14.14c3.9,3.91,10.24,3.91,14.14,0    C134.703,391.448,134.703,385.108,130.793,381.208z"/>
	</g>
</g>
<g>
	<g>
		<path d="M497.339,156.08L355.923,14.666c-19.539-19.552-51.163-19.555-70.714-0.003L14.662,285.209    c-19.542,19.543-19.558,51.166,0,70.711l141.416,141.414c0,0,0,0,0.002,0.003c19.537,19.549,51.16,19.552,70.712,0    l270.546-270.546C516.88,207.248,516.896,175.625,497.339,156.08z M483.196,212.649L212.65,483.196    c-11.726,11.727-30.694,11.741-42.425,0.003c0-0.001-0.001-0.002-0.002-0.003l-141.42-141.42    c-11.73-11.721-11.733-30.692,0.002-42.424L299.35,28.805c11.729-11.73,30.697-11.739,42.427,0l141.42,141.42    C494.929,181.946,494.931,200.917,483.196,212.649z"/>
	</g>
</g>
<g>
	<g>
		<path d="M444.849,166.149c-15.598-15.595-40.974-15.596-56.568-0.002c-15.635,15.622-15.646,40.935-0.003,56.563    c15.637,15.639,40.934,15.639,56.571,0v0.001C460.476,207.084,460.478,181.779,444.849,166.149z M430.708,208.569    c-7.819,7.82-20.463,7.826-28.291-0.003c-7.814-7.808-7.82-20.458,0.003-28.274c7.8-7.8,20.489-7.799,28.288,0    C438.518,188.102,438.518,200.759,430.708,208.569z"/>
	</g>
</g>
<g>
	<g>
		<path d="M371.14,239.859c-15.598-15.596-40.974-15.597-56.568-0.003c-15.638,15.625-15.645,40.933,0,56.578    c15.595,15.582,40.969,15.582,56.565,0c0.002-0.002,0.004-0.004,0.006-0.007C386.731,280.824,386.73,255.449,371.14,239.859z     M356.998,282.289c-7.801,7.794-20.491,7.791-28.287,0c-7.817-7.816-7.825-20.47,0-28.288c7.8-7.8,20.488-7.799,28.287,0    C364.792,261.795,364.792,274.485,356.998,282.289z"/>
	</g>
</g>
<g>
	<g>
		<path d="M296.43,314.568c-15.63-15.629-40.939-15.644-56.571,0c-15.596,15.598-15.596,40.975,0,56.572    c15.593,15.592,40.967,15.589,56.568,0.003c0.002-0.002,0.004-0.004,0.006-0.007C312.014,355.541,312.014,330.166,296.43,314.568z     M282.286,357.001c-7.804,7.79-20.491,7.792-28.284-0.004c-7.799-7.799-7.799-20.489,0.003-28.291    c7.797-7.803,20.451-7.829,28.281-0.001C290.08,336.508,290.08,349.201,282.286,357.001z"/>
	</g>
</g>
<g>
	<g>
		<path d="M222.715,388.28c-15.624-15.637-40.935-15.645-56.565-0.003c-15.596,15.598-15.596,40.975,0,56.572    c15.594,15.593,40.966,15.594,56.562,0c0,0,0,0,0-0.001C238.308,429.251,238.308,403.874,222.715,388.28z M208.57,430.706    c-7.796,7.796-20.481,7.796-28.277,0c-7.799-7.799-7.799-20.489,0.003-28.291c7.81-7.816,20.458-7.819,28.274,0.002    C216.369,410.218,216.369,422.909,208.57,430.706z"/>
	</g>
</g>
<g>
	<g>
		<path d="M345.851,67.151c-15.595-15.593-40.967-15.596-56.562,0.001c-15.596,15.597-15.596,40.974-0.003,56.568    c15.629,15.641,40.939,15.641,56.568,0C361.447,108.123,361.446,82.747,345.851,67.151z M331.708,109.582    c-0.001,0.001-0.002,0.002-0.003,0.003c-7.81,7.816-20.458,7.819-28.274-0.002c-7.799-7.8-7.799-20.491,0-28.289    c7.797-7.797,20.48-7.797,28.277,0C339.507,89.093,339.507,101.783,331.708,109.582z"/>
	</g>
</g>
<g>
	<g>
		<path d="M272.142,140.86c-15.591-15.59-40.967-15.592-56.574,0.004c-15.581,15.595-15.581,40.97,0.003,56.568    c15.635,15.634,40.942,15.641,56.574-0.003C287.738,181.832,287.737,156.456,272.142,140.86z M258,183.29    c-0.001,0.001-0.002,0.002-0.003,0.003c-7.797,7.803-20.451,7.829-28.281,0.001c-7.795-7.801-7.795-20.494-0.007-28.289    c7.797-7.79,20.49-7.806,28.291-0.003C265.799,162.801,265.799,175.491,258,183.29z"/>
	</g>
</g>
<g>
	<g>
		<path d="M197.429,215.566c-15.596-15.582-40.97-15.583-56.571,0.007c-15.588,15.603-15.587,40.978,0.003,56.568    c15.595,15.593,40.97,15.599,56.568,0.003C213.067,256.52,213.074,231.211,197.429,215.566z M183.294,257.996    c-0.001,0.001-0.002,0.002-0.003,0.003c-7.799,7.799-20.488,7.799-28.287,0c-7.797-7.794-7.795-20.487-0.004-28.285    c7.796-7.79,20.491-7.798,28.291-0.003C191.104,237.523,191.119,250.178,183.294,257.996z"/>
	</g>
</g>
<g>
	<g>
		<path d="M123.724,289.291c-15.637-15.64-40.933-15.641-56.571-0.002c-15.627,15.627-15.629,40.932,0,56.562    c15.595,15.593,40.97,15.599,56.568,0.003C139.356,330.233,139.367,304.919,123.724,289.291z M109.585,331.706    c-0.001,0.001-0.002,0.002-0.003,0.003c-7.799,7.799-20.489,7.799-28.288,0c-7.81-7.809-7.812-20.466,0-28.278    c7.819-7.819,20.463-7.825,28.291,0.004C117.401,311.244,117.401,323.895,109.585,331.706z"/>
	</g>
</g>
<g>
	<g>
		<path d="M367.06,144.94c-3.904-3.902-10.237-3.904-14.142,0L144.932,352.917c-3.905,3.905-3.906,10.237,0,14.143    c3.906,3.905,10.237,3.905,14.142,0L367.06,159.083C370.965,155.178,370.966,148.846,367.06,144.94z"/>
	</g>
</g>
</svg>